# xmcd CD database file
#
# Track frame offsets:
#	150
#	4030
#	41227
#	72530
#	96967
#	117277
#	160480
#	183515
#	261902
#	282342
#	326930
#
# Disc length: 4693 seconds
#
# Revision: 2
# Processed by: cddbd v1.5.1PL2 Copyright (c) Steve Scherf et al.
# Submitted via: CDex 1.51
#
DISCID=a912530b
DTITLE=Keith Jarrett - Expectations
DYEAR=1972
DGENRE=Jazz
TTITLE0=Vision
TTITLE1=Common Mama
TTITLE2=The Magician In You
TTITLE3=Roussillon
TTITLE4=Expectations
TTITLE5=Take Me Back
TTITLE6=The Circular Letter (For J.K.)
TTITLE7=Nomad
TTITLE8=Sundance
TTITLE9=Bring Back The Time When (If)
TTITLE10=There Is A Road (God's River)
EXTD=(1972]\nRod Evans--Lead Vocals      Lee Dorman--Bass\nRhino--Guitars        Bobby Caldwell--Drums\n YEAR: 1972
EXTT0=
EXTT1=
EXTT2=
EXTT3=
EXTT4=
EXTT5=
EXTT6=
EXTT7=
EXTT8=
EXTT9=
EXTT10=
PLAYORDER=
